<svg version="1.1" id="Layer_1" xmlns="http://www.w3.org/2000/svg" xmlns:xlink="http://www.w3.org/1999/xlink" x="0px" y="0px"
   width="612px" height="502.174px" viewBox="0 65.326 612 502.174" enable-background="new 0 65.326 612 502.174"
   xml:space="preserve" class="logo">
	<!-- Created with SVG-edit - http://svg-edit.googlecode.com/ -->
	<g>
		<title>LogoAlineQueen</title>
		<text class="nome" id="svg1" x="75.196901" y="212.4" font-size="24" font-family="Cursive" text-anchor="middle" transform="matrix(5.0786848068237305,0,0,4.464285850524902,-69.40137116611004,-679.0000267028809) ">AlineQueen</text>
		<path class="coroa" id="svg2" transform="rotate(-16.796016693115234 325.97647094726545,172.55499267578125) " d="m326.005005,133.391006c-6.445007,6.580994 -7.406006,15.362991 -6.817017,22.625c-0.431976,-0.111008 -0.901978,-0.132004 -1.362976,-0.132004c-3.420013,0 -6.192017,3.22699 -6.192017,7.210999c0,3.983994 2.772003,7.210999 6.192017,7.210999c1.490997,0 2.906982,-0.632004 3.975983,-1.654007c0.127991,0.373001 0.227997,0.661011 0.227997,0.661011c-5.947998,21.007004 -20.100983,10.584 -25.050995,4.630997c1.446991,-0.893997 2.442993,-2.656006 2.442993,-4.695999c0,-2.943008 -2.017975,-5.358994 -4.543976,-5.358994c-2.527008,0 -4.60202,2.415985 -4.60202,5.358994c0,2.942001 2.075012,5.291992 4.60202,5.291992c0.108978,0 0.175995,0.008011 0.283997,0c-1.223999,15.927002 -9.502014,23.042999 -20.677002,5.95401c0.169006,0.022003 0.393982,0 0.567993,0c2.527008,0 4.544006,-2.416 4.544006,-5.359009c0,-2.942001 -2.016998,-5.291992 -4.544006,-5.291992c-2.098999,0 -3.891998,1.658997 -4.431,3.903c-2.432007,-4.520004 -13.748016,-7.417999 -9.825989,-3.705002c9.877991,9.352997 22.436981,41.677994 22.436981,41.677994l0.056,0c3.309998,-10.112 21.303009,-17.862 43.001007,-17.862c21.695007,0 39.631012,7.751007 42.942993,17.862l0.057007,0c2.519012,-6.276993 13.213989,-33.483994 21.868988,-41.677994c3.921997,-3.712997 -7.394989,-0.815002 -9.826996,3.705002c-0.539001,-2.244003 -2.274994,-3.903 -4.373993,-3.903c-2.527008,0 -4.601013,2.349991 -4.601013,5.291992c0,2.943008 2.074005,5.359009 4.601013,5.359009c0.174011,0 0.34201,0.022995 0.510986,0c-11.174988,17.088989 -19.452972,9.972992 -20.675995,-5.95401c0.108002,0.008011 0.231018,0 0.341003,0c2.526001,0 4.544006,-2.349991 4.544006,-5.291992c0,-2.943008 -2.018005,-5.358994 -4.544006,-5.358994c-2.527008,0 -4.60199,2.415985 -4.60199,5.358994c0,2.039993 0.996002,3.802002 2.442993,4.695999c-4.950012,5.953003 -19.045013,16.376007 -24.993011,-4.630997c0,0 0.098999,-0.28801 0.22702,-0.661011c1.069,1.022003 2.427979,1.654007 3.919006,1.654007c3.42099,0 6.191986,-3.227005 6.191986,-7.210999c0,-3.984009 -2.770996,-7.210999 -6.191986,-7.210999c-0.461029,0 -0.930023,0.020996 -1.363007,0.132004c0.588989,-7.262009 -0.315002,-16.044006 -6.76001,-22.625l0.001007,0z"/>
	</g>
</svg>